<mxfile host="app.diagrams.net" modified="2022-05-08T13:19:47.830Z" agent="5.0 (Windows NT 6.1) AppleWebKit/537.36 (KHTML, like Gecko) Chrome/99.0.4844.84 Safari/537.36 OPR/85.0.4341.75" etag="NgTYshfFCLwGPkYkbB9i" version="18.0.2" type="github">
  <diagram id="WAd6fbyraIBxRGWLp2v_" name="Page-1">
    <mxGraphModel dx="868" dy="452" grid="1" gridSize="10" guides="1" tooltips="1" connect="1" arrows="1" fold="1" page="1" pageScale="1" pageWidth="827" pageHeight="1169" math="0" shadow="0">
      <root>
        <mxCell id="0" />
        <mxCell id="1" parent="0" />
        <mxCell id="XMs5omwy2i8FgqJ19u3q-4" value="" style="edgeStyle=orthogonalEdgeStyle;rounded=0;orthogonalLoop=1;jettySize=auto;html=1;" parent="1" source="XMs5omwy2i8FgqJ19u3q-2" target="XMs5omwy2i8FgqJ19u3q-5" edge="1">
          <mxGeometry relative="1" as="geometry">
            <mxPoint x="380" y="120" as="targetPoint" />
            <Array as="points" />
          </mxGeometry>
        </mxCell>
        <mxCell id="XMs5omwy2i8FgqJ19u3q-2" value="BAŞLA" style="ellipse;whiteSpace=wrap;html=1;" parent="1" vertex="1">
          <mxGeometry x="320" width="120" height="80" as="geometry" />
        </mxCell>
        <mxCell id="XMs5omwy2i8FgqJ19u3q-7" value="" style="edgeStyle=orthogonalEdgeStyle;rounded=0;orthogonalLoop=1;jettySize=auto;html=1;" parent="1" source="XMs5omwy2i8FgqJ19u3q-5" target="XMs5omwy2i8FgqJ19u3q-6" edge="1">
          <mxGeometry relative="1" as="geometry" />
        </mxCell>
        <mxCell id="XMs5omwy2i8FgqJ19u3q-5" value="Çöp atma haznesinin kapağı açılır." style="rounded=0;whiteSpace=wrap;html=1;" parent="1" vertex="1">
          <mxGeometry x="320" y="140" width="120" height="60" as="geometry" />
        </mxCell>
        <mxCell id="XMs5omwy2i8FgqJ19u3q-9" value="" style="edgeStyle=orthogonalEdgeStyle;rounded=0;orthogonalLoop=1;jettySize=auto;html=1;" parent="1" source="XMs5omwy2i8FgqJ19u3q-6" target="XMs5omwy2i8FgqJ19u3q-8" edge="1">
          <mxGeometry relative="1" as="geometry" />
        </mxCell>
        <mxCell id="XMs5omwy2i8FgqJ19u3q-14" value="" style="edgeStyle=orthogonalEdgeStyle;rounded=0;orthogonalLoop=1;jettySize=auto;html=1;" parent="1" source="XMs5omwy2i8FgqJ19u3q-6" target="XMs5omwy2i8FgqJ19u3q-13" edge="1">
          <mxGeometry relative="1" as="geometry" />
        </mxCell>
        <mxCell id="XMs5omwy2i8FgqJ19u3q-6" value="Poşet askılığında ağırlık algılandıysa" style="rhombus;whiteSpace=wrap;html=1;" parent="1" vertex="1">
          <mxGeometry x="340" y="270" width="80" height="80" as="geometry" />
        </mxCell>
        <mxCell id="XMs5omwy2i8FgqJ19u3q-12" value="" style="edgeStyle=orthogonalEdgeStyle;rounded=0;orthogonalLoop=1;jettySize=auto;html=1;" parent="1" source="XMs5omwy2i8FgqJ19u3q-8" target="XMs5omwy2i8FgqJ19u3q-11" edge="1">
          <mxGeometry relative="1" as="geometry" />
        </mxCell>
        <mxCell id="XMs5omwy2i8FgqJ19u3q-8" value="Poşetin altına kesmek için dönme hareketi yapan kesici çalıştırılır." style="whiteSpace=wrap;html=1;" parent="1" vertex="1">
          <mxGeometry x="520" y="280" width="120" height="60" as="geometry" />
        </mxCell>
        <mxCell id="XMs5omwy2i8FgqJ19u3q-10" value="EVET" style="text;html=1;align=center;verticalAlign=middle;resizable=0;points=[];autosize=1;strokeColor=none;fillColor=none;" parent="1" vertex="1">
          <mxGeometry x="440" y="290" width="50" height="20" as="geometry" />
        </mxCell>
        <mxCell id="XMs5omwy2i8FgqJ19u3q-16" value="" style="edgeStyle=orthogonalEdgeStyle;rounded=0;orthogonalLoop=1;jettySize=auto;html=1;" parent="1" source="XMs5omwy2i8FgqJ19u3q-11" target="XMs5omwy2i8FgqJ19u3q-13" edge="1">
          <mxGeometry relative="1" as="geometry" />
        </mxCell>
        <mxCell id="XMs5omwy2i8FgqJ19u3q-11" value="Poşet askılığın geri gitmesi ile çöp haznesine bırakılır." style="whiteSpace=wrap;html=1;" parent="1" vertex="1">
          <mxGeometry x="520" y="420" width="120" height="60" as="geometry" />
        </mxCell>
        <mxCell id="XMs5omwy2i8FgqJ19u3q-20" value="" style="edgeStyle=orthogonalEdgeStyle;rounded=0;orthogonalLoop=1;jettySize=auto;html=1;" parent="1" source="XMs5omwy2i8FgqJ19u3q-13" edge="1">
          <mxGeometry relative="1" as="geometry">
            <mxPoint x="380" y="560" as="targetPoint" />
          </mxGeometry>
        </mxCell>
        <mxCell id="XMs5omwy2i8FgqJ19u3q-13" value="Atıkların daha küçük parçalara ayrılması için öğütücüler çalıştırılır." style="whiteSpace=wrap;html=1;" parent="1" vertex="1">
          <mxGeometry x="320" y="420" width="120" height="60" as="geometry" />
        </mxCell>
        <mxCell id="XMs5omwy2i8FgqJ19u3q-18" value="HAYIR" style="text;html=1;align=center;verticalAlign=middle;resizable=0;points=[];autosize=1;strokeColor=none;fillColor=none;" parent="1" vertex="1">
          <mxGeometry x="325" y="370" width="50" height="20" as="geometry" />
        </mxCell>
        <mxCell id="XMs5omwy2i8FgqJ19u3q-53" value="" style="edgeStyle=orthogonalEdgeStyle;rounded=0;orthogonalLoop=1;jettySize=auto;html=1;" parent="1" source="XMs5omwy2i8FgqJ19u3q-23" edge="1">
          <mxGeometry relative="1" as="geometry">
            <mxPoint x="380" y="1160" as="targetPoint" />
          </mxGeometry>
        </mxCell>
        <mxCell id="XMs5omwy2i8FgqJ19u3q-23" value="Yoğuşan metan gazı hazne duvarlarından aşağı hareket ederek toplama tüplerinin içine birikir.&amp;nbsp;" style="rounded=0;whiteSpace=wrap;html=1;" parent="1" vertex="1">
          <mxGeometry x="320" y="1020" width="120" height="60" as="geometry" />
        </mxCell>
        <mxCell id="XMs5omwy2i8FgqJ19u3q-25" value="SON" style="ellipse;whiteSpace=wrap;html=1;" parent="1" vertex="1">
          <mxGeometry x="320" y="1300" width="120" height="80" as="geometry" />
        </mxCell>
        <mxCell id="XMs5omwy2i8FgqJ19u3q-29" value="" style="edgeStyle=orthogonalEdgeStyle;rounded=0;orthogonalLoop=1;jettySize=auto;html=1;" parent="1" source="XMs5omwy2i8FgqJ19u3q-27" target="XMs5omwy2i8FgqJ19u3q-28" edge="1">
          <mxGeometry relative="1" as="geometry" />
        </mxCell>
        <mxCell id="XMs5omwy2i8FgqJ19u3q-30" value="" style="edgeStyle=orthogonalEdgeStyle;rounded=0;orthogonalLoop=1;jettySize=auto;html=1;" parent="1" source="XMs5omwy2i8FgqJ19u3q-27" target="XMs5omwy2i8FgqJ19u3q-28" edge="1">
          <mxGeometry relative="1" as="geometry" />
        </mxCell>
        <mxCell id="XMs5omwy2i8FgqJ19u3q-50" value="" style="edgeStyle=orthogonalEdgeStyle;rounded=0;orthogonalLoop=1;jettySize=auto;html=1;" parent="1" source="XMs5omwy2i8FgqJ19u3q-27" edge="1">
          <mxGeometry relative="1" as="geometry">
            <mxPoint x="380" y="720" as="targetPoint" />
          </mxGeometry>
        </mxCell>
        <mxCell id="XMs5omwy2i8FgqJ19u3q-27" value="Metan gazı sensörleri metan gazı algılıyorsa" style="rhombus;whiteSpace=wrap;html=1;" parent="1" vertex="1">
          <mxGeometry x="340" y="560" width="80" height="80" as="geometry" />
        </mxCell>
        <mxCell id="XMs5omwy2i8FgqJ19u3q-28" value="Çöplerin toplanması için ekiplere sinyal gönderilir." style="whiteSpace=wrap;html=1;" parent="1" vertex="1">
          <mxGeometry x="590" y="570" width="120" height="60" as="geometry" />
        </mxCell>
        <mxCell id="XMs5omwy2i8FgqJ19u3q-31" value="EVET" style="text;html=1;align=center;verticalAlign=middle;resizable=0;points=[];autosize=1;strokeColor=none;fillColor=none;" parent="1" vertex="1">
          <mxGeometry x="325" y="670" width="50" height="20" as="geometry" />
        </mxCell>
        <mxCell id="XMs5omwy2i8FgqJ19u3q-32" value="HAYIR" style="text;html=1;align=center;verticalAlign=middle;resizable=0;points=[];autosize=1;strokeColor=none;fillColor=none;" parent="1" vertex="1">
          <mxGeometry x="440" y="575" width="50" height="20" as="geometry" />
        </mxCell>
        <mxCell id="XMs5omwy2i8FgqJ19u3q-52" value="" style="edgeStyle=orthogonalEdgeStyle;rounded=0;orthogonalLoop=1;jettySize=auto;html=1;" parent="1" source="XMs5omwy2i8FgqJ19u3q-33" target="XMs5omwy2i8FgqJ19u3q-23" edge="1">
          <mxGeometry relative="1" as="geometry" />
        </mxCell>
        <mxCell id="XMs5omwy2i8FgqJ19u3q-33" value="Metan gazı yoğuşma haznesine geçtiğinde soğutma sistemi hazneyi soğutmaya başlar." style="whiteSpace=wrap;html=1;" parent="1" vertex="1">
          <mxGeometry x="320" y="880" width="120" height="60" as="geometry" />
        </mxCell>
        <mxCell id="XMs5omwy2i8FgqJ19u3q-54" value="" style="edgeStyle=orthogonalEdgeStyle;rounded=0;orthogonalLoop=1;jettySize=auto;html=1;exitX=0.5;exitY=1;exitDx=0;exitDy=0;" parent="1" source="0f2EPbEHN3G_suvUfgIW-7" target="XMs5omwy2i8FgqJ19u3q-25" edge="1">
          <mxGeometry relative="1" as="geometry">
            <mxPoint x="380" y="1220" as="sourcePoint" />
          </mxGeometry>
        </mxCell>
        <mxCell id="0f2EPbEHN3G_suvUfgIW-5" value="" style="edgeStyle=orthogonalEdgeStyle;rounded=0;orthogonalLoop=1;jettySize=auto;html=1;exitX=1;exitY=0.5;exitDx=0;exitDy=0;" edge="1" parent="1" source="0f2EPbEHN3G_suvUfgIW-7" target="0f2EPbEHN3G_suvUfgIW-4">
          <mxGeometry relative="1" as="geometry">
            <mxPoint x="440" y="1190" as="sourcePoint" />
          </mxGeometry>
        </mxCell>
        <mxCell id="XMs5omwy2i8FgqJ19u3q-59" style="edgeStyle=orthogonalEdgeStyle;rounded=0;orthogonalLoop=1;jettySize=auto;html=1;entryX=1;entryY=0.5;entryDx=0;entryDy=0;" parent="1" target="XMs5omwy2i8FgqJ19u3q-25" edge="1">
          <mxGeometry relative="1" as="geometry">
            <mxPoint x="530" y="1340" as="targetPoint" />
            <Array as="points">
              <mxPoint x="650" y="790" />
              <mxPoint x="650" y="1340" />
            </Array>
            <mxPoint x="650" y="790" as="sourcePoint" />
          </mxGeometry>
        </mxCell>
        <mxCell id="0f2EPbEHN3G_suvUfgIW-1" value="" style="endArrow=none;html=1;rounded=0;entryX=0.5;entryY=1;entryDx=0;entryDy=0;" edge="1" parent="1" target="XMs5omwy2i8FgqJ19u3q-28">
          <mxGeometry width="50" height="50" relative="1" as="geometry">
            <mxPoint x="650" y="790" as="sourcePoint" />
            <mxPoint x="440" y="740" as="targetPoint" />
          </mxGeometry>
        </mxCell>
        <mxCell id="0f2EPbEHN3G_suvUfgIW-3" value="" style="edgeStyle=orthogonalEdgeStyle;rounded=0;orthogonalLoop=1;jettySize=auto;html=1;" edge="1" parent="1" source="0f2EPbEHN3G_suvUfgIW-2" target="XMs5omwy2i8FgqJ19u3q-33">
          <mxGeometry relative="1" as="geometry" />
        </mxCell>
        <mxCell id="0f2EPbEHN3G_suvUfgIW-2" value="Metan gazının yoğuşma haznesine çekilmesi için vakum motorları çalıştırılır." style="rounded=0;whiteSpace=wrap;html=1;" vertex="1" parent="1">
          <mxGeometry x="320" y="720" width="120" height="60" as="geometry" />
        </mxCell>
        <mxCell id="0f2EPbEHN3G_suvUfgIW-4" value="Tüplerin boşaltılması için ekiplere sinyal gönderilir." style="whiteSpace=wrap;html=1;rounded=0;" vertex="1" parent="1">
          <mxGeometry x="500" y="1170" width="120" height="60" as="geometry" />
        </mxCell>
        <mxCell id="0f2EPbEHN3G_suvUfgIW-6" value="" style="endArrow=none;html=1;rounded=0;entryX=0.5;entryY=1;entryDx=0;entryDy=0;" edge="1" parent="1" target="0f2EPbEHN3G_suvUfgIW-4">
          <mxGeometry width="50" height="50" relative="1" as="geometry">
            <mxPoint x="560" y="1340" as="sourcePoint" />
            <mxPoint x="440" y="1160" as="targetPoint" />
          </mxGeometry>
        </mxCell>
        <mxCell id="0f2EPbEHN3G_suvUfgIW-7" value="&lt;span style=&quot;&quot;&gt;Tüplerin içine uzanan sıvı sensörleri tüp ağzının yakınında sıvı algılarsa&lt;/span&gt;" style="rhombus;whiteSpace=wrap;html=1;" vertex="1" parent="1">
          <mxGeometry x="340" y="1160" width="80" height="80" as="geometry" />
        </mxCell>
      </root>
    </mxGraphModel>
  </diagram>
</mxfile>
